<?xml version="1.0" encoding="utf-8"?>
<!-- Generator: Adobe Illustrator 23.0.2, SVG Export Plug-In . SVG Version: 6.00 Build 0)  -->
<svg version="1.1" id="Layer_1" xmlns="http://www.w3.org/2000/svg" xmlns:xlink="http://www.w3.org/1999/xlink" x="0px" y="0px"
	 viewBox="0 0 500 100" style="enable-background:new 0 0 500 100;" xml:space="preserve">
<style type="text/css">
	.st0{fill:#010101;}
</style>
<g>
	<g>
		<path class="st0" d="M184.8,46.53v18.63h14.65v5.25h-20.48V25.61h5.82V46.53"/>
		<path class="st0" d="M204.9,25.81c2.5,0,4.48,2.05,4.48,4.54c0,2.43-1.98,4.42-4.48,4.42c-2.5,0-4.48-1.98-4.48-4.42
			C200.42,27.85,202.4,25.81,204.9,25.81z M202.14,41.36h5.5v29.05h-5.5V41.36z"/>
		<path class="st0" d="M236.38,41.36h5.57v44.79h-5.57v-20.8c-1.79,3.33-5.44,5.76-10.43,5.76c-8.51,0-14.65-7.1-14.65-15.23
			c0-8.26,6.21-15.29,14.65-15.29c4.99,0,8.64,2.43,10.43,5.76V41.36z M216.86,55.88c0,5.5,3.78,10.24,9.73,10.24
			c5.89,0,9.79-4.61,9.79-10.24c0-5.63-3.9-10.3-9.79-10.3C220.64,45.58,216.86,50.38,216.86,55.88z"/>
		<path class="st0" d="M272.98,41.36v29.05h-5.57v-5.18c-1.73,3.52-5.31,5.89-10.37,5.89c-3.65,0-6.72-1.22-8.64-3.78
			c-1.6-2.18-2.18-4.8-2.18-8.83V41.36h5.57v15.36c0,5.38,1.92,9.47,7.23,9.47c5.7,0,8.38-4.67,8.38-9.92V41.36H272.98z"/>
		<path class="st0" d="M281.68,25.81c2.5,0,4.48,2.05,4.48,4.54c0,2.43-1.98,4.42-4.48,4.42s-4.48-1.98-4.48-4.42
			C277.2,27.85,279.19,25.81,281.68,25.81z M278.93,41.36h5.5v29.05h-5.5V41.36z"/>
		<path class="st0" d="M313.1,65.35c-1.79,3.33-5.5,5.76-10.49,5.76c-8.45,0-14.59-7.04-14.59-15.23c0-8.26,6.21-15.29,14.65-15.29
			c4.93,0,8.64,2.43,10.43,5.76V25.61h5.5v44.79h-5.5V65.35z M313.1,55.88c0-5.57-3.84-10.3-9.79-10.3c-5.95,0-9.79,4.74-9.79,10.3
			s3.84,10.24,9.79,10.24C309.26,66.12,313.1,61.45,313.1,55.88z"/>
		<path class="st0" d="M327.3,25.81c2.5,0,4.48,2.05,4.48,4.54c0,2.43-1.98,4.42-4.48,4.42s-4.48-1.98-4.48-4.42
			C322.82,27.85,324.81,25.81,327.3,25.81z M324.55,41.36h5.5v29.05h-5.5V41.36z"/>
		<path class="st0" d="M353.09,70.41c-1.09,0.19-3.14,0.38-5.06,0.38c-3.52,0-9.09-0.64-9.09-10.17V46.03h-5.38v-4.67h5.38v-9.79
			h5.57v9.79h7.55v4.67h-7.55V59.4c0,5.63,1.98,6.34,4.8,6.34c1.15,0,2.94-0.13,3.78-0.26V70.41z"/>
		<path class="st0" d="M357.25,74.18h5.44c0.13,4.54,2.3,7.68,8.19,7.68c5.44,0,8.19-2.62,8.19-9.41v-7.23
			c-1.79,3.58-5.18,5.89-10.37,5.89c-3.97,0-6.85-1.34-8.64-3.71c-1.6-2.18-2.18-4.8-2.18-9.09V41.36h5.57v15.23
			c0,5.44,1.66,9.6,7.23,9.6c5.89,0,8.38-4.67,8.38-9.92V41.36h5.57v31.1c0,10.3-5.5,14.33-13.69,14.33
			C361.34,86.79,357.51,81.29,357.25,74.18z"/>
	</g>
	<path class="st0" d="M163.42,61.36c-1.81,0-2.98-0.95-3.7-2.98c-0.82-2.3-1.23-5.64-1.23-9.91c0-0.15,0-0.31,0-0.46h0.04
		l-0.01-0.98c-0.08-10.15-1-18.24-2.74-24.07c-1.94-6.47-4.8-9.75-8.5-9.75c-2.71,0-4.95,1.72-6.66,5.11
		c-1.59,3.13-2.76,7.25-3.48,12.24C136.4,35.51,136,41,135.94,46.92c0.01,0.44,0.02,0.9,0.02,1.37c0,4.19-0.42,7.54-1.24,9.95
		c-1.07,3.13-2.66,3.13-3.18,3.13c-1.81,0-2.98-0.95-3.7-2.98c-0.82-2.3-1.23-5.64-1.23-9.91c0-0.48,0.01-0.95,0.02-1.42l0-0.83
		c-0.08-9.87-0.95-17.26-2.74-23.25c-1.94-6.47-4.8-9.75-8.5-9.75l-0.03,22.47c1.01,0,2.46,0.32,3.43,3.11
		c0.74,2.11,1.16,4.9,1.24,8.29l0.04,1.29l0,0.37l0,0.42c0,7.39,0.42,13.66,1.25,18.62c0.84,5.03,2.05,8.95,3.58,11.65
		c1.66,2.93,3.87,4.41,6.55,4.41c3.66,0,6.49-3.25,8.39-9.67c1.79-6.04,2.7-14.73,2.7-25.83l-0.01-1.27
		c0.09-3.33,0.53-6.12,1.29-8.3c0.97-2.77,2.41-3.09,3.4-3.09c1.01,0,2.46,0.32,3.43,3.11c0.74,2.11,1.16,4.9,1.24,8.28l0.04,0.55
		c0,0.5-0.01,1.01-0.01,1.53c0,7.39,0.42,13.65,1.25,18.62c0.84,5.03,2.05,8.95,3.58,11.65c1.66,2.93,3.87,4.41,6.55,4.41
		c0.07,0,0.14-0.01,0.21-0.01V61.36C163.5,61.36,163.46,61.36,163.42,61.36z"/>
</g>
</svg>
